<?xml version="1.0" encoding="iso-8859-1"?>
<!-- Generator: Adobe Illustrator 14.0.0, SVG Export Plug-In . SVG Version: 6.00 Build 43363)  -->
<!DOCTYPE svg PUBLIC "-//W3C//DTD SVG 1.1//EN" "http://www.w3.org/Graphics/SVG/1.1/DTD/svg11.dtd">
<svg version="1.1" id="Layer_1" xmlns="http://www.w3.org/2000/svg" xmlns:xlink="http://www.w3.org/1999/xlink" x="0px" y="0px"
	 width="32px" height="32px" viewBox="0 0 32 32" style="enable-background:new 0 0 32 32;" xml:space="preserve">
<rect id="rect4116_1_" x="0" style="fill:#717171;fill-opacity:0;" width="32" height="32"/>
<path style="opacity:0.15;fill:#ACACAC;enable-background:new    ;" d="M6.721,3.699c-1.41,0.116-3.055,4.768-1.625,7.625
	c0.25,0.5-3.5,3.875-3.5,6.5c0,0,0.75,4.521,9.875,3c0.75-0.125-1.375,4.499,0.5,5.499s17.25,3.875,17.375-0.875
	c0.125-4.749-1.375-8.75-4.5-9s6.488-11.361-4.625-12.25c-3.125-0.25-5,3.75-4.75,11.375c0.047,1.424-1.625-3.875-3.75-3.75
	S15.846,2.949,6.721,3.699z"/>
<path id="path4375_3_" style="opacity:0.6;enable-background:new    ;" d="M28.916,17.886c-0.824-0.884-1.818-1.521-2.871-1.868
	c0.477-1.409,0.709-3.166,0.709-5.313c0-3.696-2.818-6.704-6.275-6.705c-3.455,0-6.271,3.008-6.271,6.707
	c0,1.022,0.068,1.984,0.213,2.875c-0.563-0.546-1.209-0.954-1.898-1.181c0.35-1.024,0.518-2.301,0.518-3.858
	c0-2.684-2.047-4.868-4.56-4.869c-2.508,0-4.552,2.188-4.557,4.87c0,1.495,0.21,2.812,0.612,3.885
	c-1.975,0.688-3.492,2.771-3.49,5.061v2.271l0.031,0.235c0.125,0.466,1.066,2.79,7.485,2.79c0.619,0,1.187-0.021,1.701-0.063
	c0,0.104-0.021,0.197-0.021,0.305v3.13l0.043,0.324c0.172,0.642,1.477,3.842,10.312,3.842c8.834,0,10.145-3.2,10.314-3.842
	l0.043-3.454C30.955,21.123,30.229,19.295,28.916,17.886L28.916,17.886z M19,17.952l-1.059-1.646
	c-0.809-1.264-1.232-3.195-1.232-5.599c0-2.313,1.689-4.2,3.769-4.2c2.074,0.001,3.768,1.887,3.77,4.198
	c0,2.545-0.361,4.437-1.076,5.62l-1.041,1.732c-0.453,0.186-0.965,0.273-1.527,0.273C20.012,18.33,19.475,18.201,19,17.952z
	 M7.427,13.85l-0.795-1.24c-0.588-0.918-0.897-2.323-0.897-4.064c0-1.682,1.229-3.051,2.734-3.051
	c1.507,0.001,2.734,1.369,2.736,3.049c0,1.848-0.271,3.221-0.784,4.081l-0.716,1.194C9.2,14.09,8.711,14.091,8.434,14.091
	C8.064,14.091,7.735,13.998,7.427,13.85z M10.571,20.865c-0.582,0.062-1.235,0.1-2.015,0.1c-4.438,0-5.519-1.16-5.701-1.396v-2.08
	c0-1.962,1.595-3.453,3.023-3.479h0.079c0.646,0.698,1.478,1.09,2.476,1.09c1.091,0,1.949-0.381,2.599-1.094h0.181
	c0.716,0,1.467,0.363,2.06,0.998c0.398,0.432,0.67,0.938,0.83,1.479c-1.64,0.892-2.947,2.498-3.531,4.385V20.865L10.571,20.865z
	 M28.443,25.854c-0.313,0.428-1.873,1.957-7.852,1.957c-6.109,0-7.599-1.603-7.851-1.93v-2.86c0-2.703,2.191-4.762,4.164-4.783
	l0.718-0.016c0.813,0.725,1.807,1.109,2.969,1.109c1.271,0,2.316-0.375,3.143-1.107h0.514c0.98,0,2.021,0.502,2.836,1.375
	c0.881,0.941,1.359,2.156,1.359,3.422V25.854L28.443,25.854z"/>
<path id="path4375_2_" style="fill:#FFFFFF;" d="M28.916,16.886c-0.824-0.884-1.818-1.521-2.871-1.868
	c0.477-1.409,0.709-3.166,0.709-5.313c0-3.696-2.818-6.704-6.275-6.705c-3.455,0-6.271,3.008-6.271,6.707
	c0,1.022,0.068,1.984,0.213,2.875c-0.563-0.546-1.209-0.954-1.898-1.181c0.35-1.024,0.518-2.301,0.518-3.858
	c0-2.684-2.047-4.868-4.56-4.869c-2.508,0-4.552,2.188-4.557,4.87c0,1.495,0.21,2.812,0.612,3.885
	c-1.975,0.688-3.492,2.771-3.49,5.062v2.271l0.031,0.235c0.125,0.466,1.066,2.79,7.485,2.79c0.619,0,1.187-0.021,1.701-0.063
	c0,0.104-0.021,0.197-0.021,0.305v3.13l0.043,0.324c0.172,0.642,1.477,3.842,10.312,3.842c8.834,0,10.145-3.2,10.314-3.842
	l0.043-3.454C30.955,20.123,30.229,18.295,28.916,16.886L28.916,16.886z M19,16.952l-1.059-1.646
	c-0.809-1.264-1.232-3.195-1.232-5.599c0-2.313,1.689-4.2,3.769-4.2c2.074,0.001,3.768,1.887,3.77,4.198
	c0,2.545-0.361,4.437-1.076,5.62l-1.041,1.732c-0.453,0.186-0.965,0.273-1.527,0.273C20.012,17.33,19.475,17.201,19,16.952z
	 M7.427,12.85l-0.795-1.24c-0.588-0.918-0.897-2.323-0.897-4.064c0-1.682,1.229-3.051,2.734-3.051
	c1.507,0.001,2.734,1.369,2.736,3.049c0,1.848-0.271,3.221-0.784,4.081l-0.716,1.194C9.2,13.09,8.711,13.091,8.434,13.091
	C8.064,13.091,7.735,12.998,7.427,12.85z M10.571,19.865c-0.582,0.062-1.235,0.1-2.015,0.1c-4.438,0-5.519-1.16-5.701-1.396v-2.08
	c0-1.963,1.595-3.454,3.023-3.479h0.079c0.646,0.698,1.478,1.09,2.476,1.09c1.091,0,1.949-0.381,2.599-1.094h0.181
	c0.716,0,1.467,0.363,2.06,0.998c0.398,0.432,0.67,0.938,0.83,1.479c-1.64,0.892-2.947,2.498-3.531,4.385V19.865L10.571,19.865z
	 M28.443,24.854c-0.313,0.428-1.873,1.957-7.852,1.957c-6.109,0-7.599-1.603-7.851-1.93v-2.86c0-2.703,2.191-4.762,4.164-4.783
	l0.718-0.016c0.813,0.725,1.807,1.109,2.969,1.109c1.271,0,2.316-0.375,3.143-1.107h0.514c0.98,0,2.021,0.502,2.836,1.375
	c0.881,0.941,1.359,2.156,1.359,3.422V24.854L28.443,24.854z"/>
</svg>
